---------------------------
| M O V I E   information |
---------------------------
Title		: Shooter
Director	: Antoine Fuqua
Release year    : 2007
Language	: English
Runtime		: 124 min 
Genre		: Action | Crime | Mystery | Thriller
Color		: Color 
IMDb rating	: 7.2/10   55,159 votes 
Link 		: http://www.imdb.com/title/tt0822854/


Source (DVD/DVDR 5/Blu-ray/HD-DVD) : Blu-ray

-------------------
| Video Attribute |
-------------------
ormat                            : MPEG Video
Format version                   : Version 2
Format profile                   : Main@High
Format settings, Matrix          : Default
Duration                         : 2h 5mn
Bit rate mode                    : Variable
Bit rate                         : 29.4 Mbps
Nominal bit rate                 : 35.0 Mbps
Width                            : 1 920 pixels
Height                           : 1 080 pixels
Display aspect ratio             : 16/9
Frame rate                       : 23.976 fps
Colorimetry                      : 4:2:0
Scan type                        : Progressive
Bits/(Pixel*Frame)               : 0.591
Stream size                      : 25.8 GiB (88%)
Subtitle language/s              : Dansk, Hollandsk, Svensk, Polsk, Tysk, Ungarsk, Engelsk, Norsk, Finsk, Tyrkisk, Spansk, Italiensk, Portugisisk, Græsk

---------------------
| Audio Attribute 1 |
---------------------
Format profile                   : Dolby Digital
Format                           : AC-3
Format/Info                      : Audio Coding 3
Duration                         : 5s 600ms
Bit rate mode                    : Constant
Bit rate                         : 640 Kbps
Channel(s)                       : 6 channels
Channel positions                : Front: L C R, Surround: L R, LFE
Sampling rate                    : 48.0 KHz
Stream size                      : 438 KiB (0%)
Audio stream language/s          : Tysk, Engelsk, Spansk, Italiensk


-------------------
| RIP Information |
-------------------
Video (Untouched/Re-encoded-%)       : Untouched
Audio (Untouched/Stripped)           : Untouched
Menus (Untouched/Stripped)           : Untouched
Extras (Untouched/Stripped/N/A)      : Untouched
Subtitles (Untouched/Stripped/Added) : Untouched

--------------------
| Post Information |
--------------------
Compression method (RAR/ZIP)	: RAR
File validation			: sfv
Part size			: 500mb
Name of the part files		: Shooter.2007.MULTi.COMPLETE.BLURAY-BR4L.part01.rar
Number of files			: 82
Total files size		: 38 GB


----------------
| Plot summary |
----------------

Bob Lee Swagger, one of the world's great marksmen and the son of a Congressional Medal of Honoree, is a loner living in the Rockies. He's left the military, having been hung out to dry in a secret Ethiopian mission a few years before, when he's recruited by a lisping colonel to help find a way that the President of the US might be assassinated in one of three cities in the next two weeks. He does his work, but the shot is fired notwithstanding and Bob Lee is quickly the fall guy: wounded and hunted by thousands, he goes to ground and, aided by two unlikely allies, searches for the truth and for those who double-crossed him. All roads lead back to Ethiopia.  
